<mxfile host="drawio-plugin" modified="2021-05-07T15:10:51.810Z" agent="5.0 (Windows NT 6.2; Win64; x64) AppleWebKit/537.36 (KHTML, like Gecko) Chrome/87.0.4280.141 Safari/537.36" version="13.7.9" etag="0keDihUFEhKHrBgU5Dxe" type="embed"><diagram id="y_r9Ihpp6yIocpp6DrJK" name="Page-1"><mxGraphModel dx="1900" dy="1786" grid="1" gridSize="10" guides="1" tooltips="1" connect="1" arrows="1" fold="1" page="1" pageScale="1" pageWidth="850" pageHeight="1100" background="#ffffff" math="0" shadow="0"><root><mxCell id="0"/><mxCell id="1" parent="0"/><mxCell id="2" value="AbstractFactory" style="swimlane;fontStyle=3;align=center;verticalAlign=top;childLayout=stackLayout;horizontal=1;startSize=26;horizontalStack=0;resizeParent=1;resizeParentMax=0;resizeLast=0;collapsible=1;marginBottom=0;strokeColor=#0000CC;strokeWidth=2;fillColor=#FFFFFF;fontColor=#000000;" vertex="1" parent="1"><mxGeometry x="230" y="220" width="240" height="86" as="geometry"/></mxCell><mxCell id="3" value="" style="line;strokeWidth=2;align=left;verticalAlign=middle;spacingTop=-1;spacingLeft=3;spacingRight=3;rotatable=0;labelPosition=right;points=[];portConstraint=eastwest;fillColor=#FFFFFF;fontColor=#000000;strokeColor=#0000CC;" vertex="1" parent="2"><mxGeometry y="26" width="240" height="8" as="geometry"/></mxCell><mxCell id="4" value="+ create_product_a(): AbstractProductA" style="text;align=left;verticalAlign=top;spacingLeft=4;spacingRight=4;overflow=hidden;rotatable=0;points=[[0,0.5],[1,0.5]];portConstraint=eastwest;fillColor=#FFFFFF;fontColor=#000000;strokeColor=#0000CC;strokeWidth=2;" vertex="1" parent="2"><mxGeometry y="34" width="240" height="26" as="geometry"/></mxCell><mxCell id="27" value="+ create_product_b(): AbstractProductB" style="text;align=left;verticalAlign=top;spacingLeft=4;spacingRight=4;overflow=hidden;rotatable=0;points=[[0,0.5],[1,0.5]];portConstraint=eastwest;fillColor=#FFFFFF;strokeColor=#000099;strokeWidth=2;fontColor=#000000;" vertex="1" parent="2"><mxGeometry y="60" width="240" height="26" as="geometry"/></mxCell><mxCell id="7" value="return" style="html=1;verticalAlign=bottom;endArrow=open;dashed=1;endSize=9;targetPerimeterSpacing=2;strokeWidth=2;strokeColor=#0000CC;fontColor=#000000;labelBackgroundColor=none;fontSize=14;exitX=0;exitY=0.5;exitDx=0;exitDy=0;entryX=0.5;entryY=1;entryDx=0;entryDy=0;" edge="1" parent="1" source="30" target="35"><mxGeometry x="-0.0955" relative="1" as="geometry"><mxPoint x="170" y="590" as="sourcePoint"/><mxPoint x="90" y="600" as="targetPoint"/><Array as="points"><mxPoint x="110" y="551"/></Array><mxPoint as="offset"/></mxGeometry></mxCell><mxCell id="17" value="Extends" style="endArrow=block;endSize=16;endFill=0;html=1;labelBackgroundColor=none;strokeColor=#0000CC;strokeWidth=2;fontColor=#000000;entryX=0.5;entryY=0;entryDx=0;entryDy=0;exitX=0.556;exitY=-0.023;exitDx=0;exitDy=0;exitPerimeter=0;fontSize=14;" edge="1" parent="1" source="13" target="5"><mxGeometry width="160" relative="1" as="geometry"><mxPoint x="340" y="350" as="sourcePoint"/><mxPoint x="500" y="350" as="targetPoint"/></mxGeometry></mxCell><mxCell id="18" value="Extends" style="endArrow=block;endSize=16;endFill=0;html=1;labelBackgroundColor=none;strokeColor=#0000CC;strokeWidth=2;fontColor=#000000;exitX=0.5;exitY=0;exitDx=0;exitDy=0;entryX=0.5;entryY=1;entryDx=0;entryDy=0;fontSize=14;" edge="1" parent="1" source="8" target="5"><mxGeometry width="160" relative="1" as="geometry"><mxPoint x="568.96" y="408.02199999999993" as="sourcePoint"/><mxPoint x="710" y="350" as="targetPoint"/></mxGeometry></mxCell><mxCell id="21" value="Extends" style="endArrow=block;endSize=16;endFill=0;html=1;labelBackgroundColor=none;strokeColor=#0000CC;strokeWidth=2;fontColor=#000000;exitX=0.5;exitY=0;exitDx=0;exitDy=0;fontSize=14;entryX=0.5;entryY=0;entryDx=0;entryDy=0;" edge="1" parent="1" source="19" target="2"><mxGeometry width="160" relative="1" as="geometry"><mxPoint x="230.00000000000006" y="424.02199999999993" as="sourcePoint"/><mxPoint x="320" y="170" as="targetPoint"/></mxGeometry></mxCell><mxCell id="22" value="Extends" style="endArrow=block;endSize=16;endFill=0;html=1;labelBackgroundColor=none;strokeColor=#0000CC;strokeWidth=2;fontColor=#000000;exitX=0.579;exitY=0;exitDx=0;exitDy=0;exitPerimeter=0;fontSize=14;entryX=0.5;entryY=1;entryDx=0;entryDy=0;" edge="1" parent="1" source="25" target="2"><mxGeometry x="-0.2476" y="-4" width="160" relative="1" as="geometry"><mxPoint x="578.96" y="418.02199999999993" as="sourcePoint"/><mxPoint x="340" y="330" as="targetPoint"/><mxPoint x="1" as="offset"/></mxGeometry></mxCell><mxCell id="23" value="return" style="html=1;verticalAlign=bottom;endArrow=open;dashed=1;endSize=9;targetPerimeterSpacing=2;strokeWidth=2;strokeColor=#0000CC;fontColor=#000000;labelBackgroundColor=none;fontSize=14;exitX=0;exitY=0.5;exitDx=0;exitDy=0;entryX=0.55;entryY=-0.033;entryDx=0;entryDy=0;entryPerimeter=0;" edge="1" parent="1" source="28" target="13"><mxGeometry relative="1" as="geometry"><mxPoint x="230" y="490" as="sourcePoint"/><mxPoint x="420" y="460" as="targetPoint"/><Array as="points"><mxPoint x="-112" y="-30"/></Array></mxGeometry></mxCell><mxCell id="24" value="return" style="html=1;verticalAlign=bottom;endArrow=open;dashed=1;endSize=9;targetPerimeterSpacing=2;strokeWidth=2;strokeColor=#0000CC;fontColor=#000000;labelBackgroundColor=none;fontSize=14;entryX=0.5;entryY=1;entryDx=0;entryDy=0;exitX=0;exitY=0.5;exitDx=0;exitDy=0;" edge="1" parent="1" source="31" target="8"><mxGeometry relative="1" as="geometry"><mxPoint y="551" as="sourcePoint"/><mxPoint x="-140" y="660" as="targetPoint"/><Array as="points"><mxPoint x="-110" y="577"/></Array></mxGeometry></mxCell><mxCell id="32" value="return" style="html=1;verticalAlign=bottom;endArrow=open;dashed=1;endSize=9;targetPerimeterSpacing=2;strokeWidth=2;strokeColor=#0000CC;fontColor=#000000;labelBackgroundColor=none;fontSize=14;exitX=0;exitY=0.5;exitDx=0;exitDy=0;entryX=0.563;entryY=0;entryDx=0;entryDy=0;entryPerimeter=0;" edge="1" parent="1" source="29" target="40"><mxGeometry relative="1" as="geometry"><mxPoint x="180" y="465" as="sourcePoint"/><mxPoint x="50" as="targetPoint"/><Array as="points"><mxPoint x="100" y="1"/></Array></mxGeometry></mxCell><mxCell id="44" value="Extends" style="endArrow=block;endSize=16;endFill=0;html=1;labelBackgroundColor=none;strokeColor=#0000CC;strokeWidth=2;fontColor=#000000;entryX=0.5;entryY=0;entryDx=0;entryDy=0;exitX=0.556;exitY=-0.023;exitDx=0;exitDy=0;exitPerimeter=0;fontSize=14;" edge="1" parent="1" source="40" target="33"><mxGeometry width="160" relative="1" as="geometry"><mxPoint x="770" y="645" as="sourcePoint"/><mxPoint x="930" y="645" as="targetPoint"/></mxGeometry></mxCell><mxCell id="45" value="Extends" style="endArrow=block;endSize=16;endFill=0;html=1;labelBackgroundColor=none;strokeColor=#0000CC;strokeWidth=2;fontColor=#000000;exitX=0.5;exitY=0;exitDx=0;exitDy=0;fontSize=14;" edge="1" parent="1" source="35"><mxGeometry width="160" relative="1" as="geometry"><mxPoint x="998.96" y="703.0219999999999" as="sourcePoint"/><mxPoint x="110" y="285" as="targetPoint"/></mxGeometry></mxCell><mxCell id="33" value="AbstractProductB" style="swimlane;fontStyle=3;childLayout=stackLayout;horizontal=1;startSize=26;horizontalStack=0;resizeParent=1;resizeParentMax=0;resizeLast=0;collapsible=1;marginBottom=0;strokeColor=#0000CC;strokeWidth=2;fontColor=#000000;fillColor=#FFFFFF;" vertex="1" parent="1"><mxGeometry x="30" y="230" width="140" height="52" as="geometry"/></mxCell><mxCell id="34" value="+ some_logic(): " style="text;align=left;verticalAlign=top;spacingLeft=4;spacingRight=4;overflow=hidden;rotatable=0;points=[[0,0.5],[1,0.5]];portConstraint=eastwest;fontColor=#000000;fillColor=#FFFFFF;strokeColor=#0000CC;strokeWidth=2;" vertex="1" parent="33"><mxGeometry y="26" width="140" height="26" as="geometry"/></mxCell><mxCell id="40" value="ConcreteProductB1" style="swimlane;fontStyle=1;align=center;verticalAlign=top;childLayout=stackLayout;horizontal=1;startSize=26;horizontalStack=0;resizeParent=1;resizeParentMax=0;resizeLast=0;collapsible=1;marginBottom=0;fillColor=#FFFFFF;fontColor=#000000;strokeColor=#0000CC;strokeWidth=2;" vertex="1" parent="1"><mxGeometry x="10" y="30" width="160" height="86" as="geometry"/></mxCell><mxCell id="41" value="- __side: float" style="text;align=left;verticalAlign=top;spacingLeft=4;spacingRight=4;overflow=hidden;rotatable=0;points=[[0,0.5],[1,0.5]];portConstraint=eastwest;fontColor=#000000;fillColor=#FFFFFF;strokeColor=#0000CC;strokeWidth=2;" vertex="1" parent="40"><mxGeometry y="26" width="160" height="26" as="geometry"/></mxCell><mxCell id="42" value="" style="line;strokeWidth=2;align=left;verticalAlign=middle;spacingTop=-1;spacingLeft=3;spacingRight=3;rotatable=0;labelPosition=right;points=[];portConstraint=eastwest;fillColor=#FFFFFF;fontColor=#000000;strokeColor=#0000CC;" vertex="1" parent="40"><mxGeometry y="52" width="160" height="8" as="geometry"/></mxCell><mxCell id="43" value="+ get_square(): float" style="text;align=left;verticalAlign=top;spacingLeft=4;spacingRight=4;overflow=hidden;rotatable=0;points=[[0,0.5],[1,0.5]];portConstraint=eastwest;fillColor=#FFFFFF;fontColor=#000000;strokeColor=#0000CC;strokeWidth=2;" vertex="1" parent="40"><mxGeometry y="60" width="160" height="26" as="geometry"/></mxCell><mxCell id="13" value="ConcreteProductA1" style="swimlane;fontStyle=1;align=center;verticalAlign=top;childLayout=stackLayout;horizontal=1;startSize=26;horizontalStack=0;resizeParent=1;resizeParentMax=0;resizeLast=0;collapsible=1;marginBottom=0;fillColor=#FFFFFF;fontColor=#000000;strokeColor=#0000CC;strokeWidth=2;" vertex="1" parent="1"><mxGeometry x="-200" y="30" width="160" height="60" as="geometry"/></mxCell><mxCell id="14" value="- __side: float" style="text;align=left;verticalAlign=top;spacingLeft=4;spacingRight=4;overflow=hidden;rotatable=0;points=[[0,0.5],[1,0.5]];portConstraint=eastwest;fontColor=#000000;fillColor=#FFFFFF;strokeColor=#0000CC;strokeWidth=2;" vertex="1" parent="13"><mxGeometry y="26" width="160" height="26" as="geometry"/></mxCell><mxCell id="15" value="" style="line;strokeWidth=2;align=left;verticalAlign=middle;spacingTop=-1;spacingLeft=3;spacingRight=3;rotatable=0;labelPosition=right;points=[];portConstraint=eastwest;fillColor=#FFFFFF;fontColor=#000000;strokeColor=#0000CC;" vertex="1" parent="13"><mxGeometry y="52" width="160" height="8" as="geometry"/></mxCell><mxCell id="5" value="AbstractProductA" style="swimlane;fontStyle=3;childLayout=stackLayout;horizontal=1;startSize=26;horizontalStack=0;resizeParent=1;resizeParentMax=0;resizeLast=0;collapsible=1;marginBottom=0;strokeColor=#0000CC;strokeWidth=2;fontColor=#000000;fillColor=#FFFFFF;" vertex="1" parent="1"><mxGeometry x="-180" y="210" width="140" height="52" as="geometry"/></mxCell><mxCell id="6" value="+ some_logic(): " style="text;align=left;verticalAlign=top;spacingLeft=4;spacingRight=4;overflow=hidden;rotatable=0;points=[[0,0.5],[1,0.5]];portConstraint=eastwest;fontColor=#000000;fillColor=#FFFFFF;strokeColor=#0000CC;strokeWidth=2;" vertex="1" parent="5"><mxGeometry y="26" width="140" height="26" as="geometry"/></mxCell><mxCell id="8" value="ConcreteProductA2" style="swimlane;fontStyle=1;align=center;verticalAlign=top;childLayout=stackLayout;horizontal=1;startSize=26;horizontalStack=0;resizeParent=1;resizeParentMax=0;resizeLast=0;collapsible=1;marginBottom=0;fillColor=#FFFFFF;fontColor=#000000;strokeColor=#0000CC;strokeWidth=2;" vertex="1" parent="1"><mxGeometry x="-190" y="360" width="160" height="60" as="geometry"/></mxCell><mxCell id="11" value="" style="line;strokeWidth=2;align=left;verticalAlign=middle;spacingTop=-1;spacingLeft=3;spacingRight=3;rotatable=0;labelPosition=right;points=[];portConstraint=eastwest;fillColor=#FFFFFF;fontColor=#000000;strokeColor=#0000CC;" vertex="1" parent="8"><mxGeometry y="26" width="160" height="8" as="geometry"/></mxCell><mxCell id="12" value="+ some_logic()" style="text;align=left;verticalAlign=top;spacingLeft=4;spacingRight=4;overflow=hidden;rotatable=0;points=[[0,0.5],[1,0.5]];portConstraint=eastwest;fillColor=#FFFFFF;fontColor=#000000;strokeColor=#0000CC;strokeWidth=2;" vertex="1" parent="8"><mxGeometry y="34" width="160" height="26" as="geometry"/></mxCell><mxCell id="35" value="ConcreteProductB2" style="swimlane;fontStyle=1;align=center;verticalAlign=top;childLayout=stackLayout;horizontal=1;startSize=26;horizontalStack=0;resizeParent=1;resizeParentMax=0;resizeLast=0;collapsible=1;marginBottom=0;fillColor=#FFFFFF;fontColor=#000000;strokeColor=#0000CC;strokeWidth=2;" vertex="1" parent="1"><mxGeometry x="30" y="360" width="160" height="60" as="geometry"/></mxCell><mxCell id="38" value="" style="line;strokeWidth=2;align=left;verticalAlign=middle;spacingTop=-1;spacingLeft=3;spacingRight=3;rotatable=0;labelPosition=right;points=[];portConstraint=eastwest;fillColor=#FFFFFF;fontColor=#000000;strokeColor=#0000CC;" vertex="1" parent="35"><mxGeometry y="26" width="160" height="8" as="geometry"/></mxCell><mxCell id="39" value="+ some_logic()" style="text;align=left;verticalAlign=top;spacingLeft=4;spacingRight=4;overflow=hidden;rotatable=0;points=[[0,0.5],[1,0.5]];portConstraint=eastwest;fillColor=#FFFFFF;fontColor=#000000;strokeColor=#0000CC;strokeWidth=2;" vertex="1" parent="35"><mxGeometry y="34" width="160" height="26" as="geometry"/></mxCell><mxCell id="25" value="ConcreteFactory2" style="swimlane;fontStyle=1;childLayout=stackLayout;horizontal=1;startSize=52;horizontalStack=0;resizeParent=1;resizeParentMax=0;resizeLast=0;collapsible=1;marginBottom=0;strokeColor=#0000CC;strokeWidth=2;fontColor=#000000;fillColor=#FFFFFF;" vertex="1" parent="1"><mxGeometry x="270" y="486" width="140" height="104" as="geometry"/></mxCell><mxCell id="30" value="+ create_product_b(): " style="text;align=left;verticalAlign=top;spacingLeft=4;spacingRight=4;overflow=hidden;rotatable=0;points=[[0,0.5],[1,0.5]];portConstraint=eastwest;fillColor=#FFFFFF;strokeColor=#000099;strokeWidth=2;fontColor=#000000;" vertex="1" parent="25"><mxGeometry y="52" width="140" height="26" as="geometry"/></mxCell><mxCell id="31" value="+ create_product_a(): " style="text;align=left;verticalAlign=top;spacingLeft=4;spacingRight=4;overflow=hidden;rotatable=0;points=[[0,0.5],[1,0.5]];portConstraint=eastwest;fillColor=#FFFFFF;fontColor=#000000;strokeColor=#0000CC;strokeWidth=2;" vertex="1" parent="25"><mxGeometry y="78" width="140" height="26" as="geometry"/></mxCell><mxCell id="19" value="ConcreteFactory1" style="swimlane;fontStyle=1;childLayout=stackLayout;horizontal=1;startSize=52;horizontalStack=0;resizeParent=1;resizeParentMax=0;resizeLast=0;collapsible=1;marginBottom=0;strokeColor=#0000CC;strokeWidth=2;fontColor=#000000;fillColor=#FFFFFF;" vertex="1" parent="1"><mxGeometry x="280" y="-90" width="140" height="104" as="geometry"/></mxCell><mxCell id="28" value="+ create_product_a(): " style="text;align=left;verticalAlign=top;spacingLeft=4;spacingRight=4;overflow=hidden;rotatable=0;points=[[0,0.5],[1,0.5]];portConstraint=eastwest;fillColor=#FFFFFF;fontColor=#000000;strokeColor=#0000CC;strokeWidth=2;" vertex="1" parent="19"><mxGeometry y="52" width="140" height="26" as="geometry"/></mxCell><mxCell id="29" value="+ create_product_b(): " style="text;align=left;verticalAlign=top;spacingLeft=4;spacingRight=4;overflow=hidden;rotatable=0;points=[[0,0.5],[1,0.5]];portConstraint=eastwest;fillColor=#FFFFFF;strokeColor=#000099;strokeWidth=2;fontColor=#000000;" vertex="1" parent="19"><mxGeometry y="78" width="140" height="26" as="geometry"/></mxCell></root></mxGraphModel></diagram></mxfile>